<svg width="156" height="157" viewBox="0 0 156 157" fill="none" xmlns="http://www.w3.org/2000/svg">
<path d="M107.25 61.4918L48.75 27.5405" stroke="#8D4817" stroke-width="2" stroke-linecap="round" stroke-linejoin="round"/>
<path d="M136.5 104.667V52.3333C136.498 50.0389 135.896 47.7856 134.755 45.7992C133.614 43.8128 131.974 42.1633 130 41.0162L84.5 14.8495C82.5238 13.7012 80.282 13.0967 78 13.0967C75.718 13.0967 73.4762 13.7012 71.5 14.8495L26 41.0162C24.0257 42.1633 22.3859 43.8128 21.245 45.7992C20.1041 47.7856 19.5023 50.0389 19.5 52.3333V104.667C19.5023 106.961 20.1041 109.214 21.245 111.201C22.3859 113.187 24.0257 114.837 26 115.984L71.5 142.15C73.4762 143.299 75.718 143.903 78 143.903C80.282 143.903 82.5238 143.299 84.5 142.15L130 115.984C131.974 114.837 133.614 113.187 134.755 111.201C135.896 109.214 136.498 106.961 136.5 104.667Z" stroke="#8D4817" stroke-width="2" stroke-linecap="round" stroke-linejoin="round"/>
<path d="M21.255 45.53L78 78.5654L134.745 45.53" stroke="#8D4817" stroke-width="2" stroke-linecap="round" stroke-linejoin="round"/>
<path d="M78 144.44V78.5" stroke="#8D4817" stroke-width="2" stroke-linecap="round" stroke-linejoin="round"/>
</svg>
